<svg xmlns="http://www.w3.org/2000/svg" viewBox="0 0 24 24" fill="#00C300"><path d="M24 10.304c0-5.369-5.383-9.738-12-9.738S0 4.935 0 10.304c0 4.814 4.27 8.846 10.035 9.608.39.084.923.258 1.058.592.121.303.079.778.039 1.085l-.171 1.027c-.053.303-.242 1.186 1.039.647 1.281-.54 6.911-4.069 9.428-6.967C23.271 14.258 24 12.382 24 10.304zM8.039 13.231H6.442a.619.619 0 01-.618-.618V8.667a.619.619 0 011.237 0v3.328h.978a.619.619 0 010 1.236zm1.875-.618a.619.619 0 01-1.237 0V8.667a.619.619 0 011.237 0v3.946zm4.962 0a.619.619 0 01-.618.618.627.627 0 01-.496-.248l-2.107-2.873v2.503a.619.619 0 01-1.237 0V8.667a.619.619 0 01.618-.618c.193 0 .374.09.496.248l2.107 2.873V8.667a.619.619 0 011.237 0v3.946zm3.452-2.489a.619.619 0 010 1.236h-.978v.635h.978a.619.619 0 010 1.236H16.73a.619.619 0 01-.618-.618V8.667c0-.341.277-.618.618-.618h1.597a.619.619 0 010 1.236h-.978v.639h.978z"/></svg>