<svg xmlns="http://www.w3.org/2000/svg" viewBox="0 0 24 24" fill="#0082C9"><path d="M12.018 6.537c-2.5 0-4.6 1.712-5.241 4.015-.56-.326-1.192-.533-1.88-.533C2.689 10.019.9 11.81.9 14.02s1.789 4 3.997 4h14.206c2.208 0 3.997-1.79 3.997-4s-1.789-4-3.997-4c-.688 0-1.32.207-1.88.533-.64-2.303-2.741-4.015-5.241-4.015h.036zm0 2c1.937 0 3.5 1.563 3.5 3.5a.98.98 0 00.518.878 2.015 2.015 0 011.067 1.778c0 1.105-.895 2-2 2H4.897c-1.105 0-2-.895-2-2a2.015 2.015 0 011.067-1.778.98.98 0 00.518-.878c0-1.937 1.563-3.5 3.5-3.5z"/></svg>