<svg role="img" viewBox="0 0 24 24" xmlns="http://www.w3.org/2000/svg">
  <path fill="#5059C9" d="M20.625 5.25a2.25 2.25 0 1 0-4.5 0 2.25 2.25 0 0 0 4.5 0z"/>
  <path fill="#5059C9" d="M22.5 9h-5.25a.75.75 0 0 0-.75.75v6.75a3.75 3.75 0 0 0 3.75 3.75h.375a3.375 3.375 0 0 0 3.375-3.375V10.5A1.5 1.5 0 0 0 22.5 9z"/>
  <path fill="#7B83EB" d="M16.5 5.25a3 3 0 1 0-6 0 3 3 0 0 0 6 0z"/>
  <path fill="#7B83EB" d="M18 9H8.25a.75.75 0 0 0-.75.75v7.5a4.5 4.5 0 0 0 4.5 4.5h1.5a4.5 4.5 0 0 0 4.5-4.5v-7.5A.75.75 0 0 0 18 9z"/>
  <path fill="#7B83EB" d="M2.25 10.5h9a.75.75 0 0 1 .75.75v6a.75.75 0 0 1-.75.75h-9A.75.75 0 0 1 1.5 17.25v-6a.75.75 0 0 1 .75-.75z" opacity=".1"/>
  <rect fill="#4B53BC" x="1.5" y="6" width="10.5" height="12" rx="1.125"/>
  <path fill="#fff" d="M9.188 9.375H7.5v5.25H6V9.375H4.312V8.25h4.876v1.125z"/>
</svg>
