<svg xmlns="http://www.w3.org/2000/svg" viewBox="0 0 24 24"><path fill="#FF9900" d="M6.763 10.036c0 .296.032.535.088.71.064.176.144.368.256.576.04.063.056.127.056.183 0 .08-.048.16-.152.24l-.503.335a.383.383 0 0 1-.208.072c-.08 0-.16-.04-.239-.112a2.47 2.47 0 0 1-.287-.374 6.18 6.18 0 0 1-.248-.467c-.622.734-1.405 1.101-2.347 1.101-.67 0-1.205-.191-1.596-.574-.391-.384-.59-.894-.59-1.533 0-.678.239-1.23.726-1.644.487-.415 1.133-.623 1.955-.623.272 0 .551.024.846.064.296.04.6.104.918.176v-.583c0-.607-.127-1.03-.375-1.277-.255-.248-.686-.367-1.3-.367-.28 0-.568.031-.863.103a6.395 6.395 0 0 0-.862.271 2.3 2.3 0 0 1-.28.104.47.47 0 0 1-.127.023c-.112 0-.168-.08-.168-.247v-.391c0-.128.016-.224.056-.288a.597.597 0 0 1 .224-.167c.279-.144.614-.264 1.005-.36A4.84 4.84 0 0 1 5.07 5.6c.838 0 1.453.19 1.851.574.392.383.591.967.591 1.756v2.315h-.749zm-3.24 1.21c.263 0 .535-.048.822-.144.287-.096.543-.272.758-.51.128-.152.224-.32.272-.512.047-.191.08-.423.08-.694V9.15a6.62 6.62 0 0 0-.735-.136 6.033 6.033 0 0 0-.75-.048c-.535 0-.926.104-1.19.32-.263.215-.39.518-.39.917 0 .375.095.655.295.846.191.2.47.296.838.296zm6.41.862c-.144 0-.24-.024-.304-.08-.064-.048-.12-.16-.168-.311L7.586 5.55a1.398 1.398 0 0 1-.072-.335c0-.128.064-.2.191-.2h.783c.152 0 .256.024.32.08.063.048.112.16.16.311l1.342 5.284 1.245-5.284c.04-.16.088-.263.152-.311a.549.549 0 0 1 .328-.08h.638c.152 0 .256.024.32.08.064.048.12.16.152.311l1.261 5.348 1.381-5.348c.048-.16.104-.263.168-.311a.517.517 0 0 1 .311-.08h.743c.128 0 .2.064.2.2 0 .04-.008.08-.016.128a1.137 1.137 0 0 1-.056.215l-1.923 6.17c-.048.16-.104.263-.168.312a.549.549 0 0 1-.328.08h-.687c-.152 0-.256-.024-.32-.08-.063-.056-.12-.16-.152-.32l-1.237-5.14-1.23 5.133c-.04.16-.088.271-.152.327-.064.056-.176.08-.328.08zm10.256.215c-.415 0-.83-.048-1.229-.143-.399-.096-.71-.2-.918-.32-.128-.071-.216-.151-.248-.215a.56.56 0 0 1-.048-.224v-.407c0-.167.064-.247.183-.247a.45.45 0 0 1 .144.024c.048.016.12.048.2.08.271.12.566.215.878.279.319.064.63.096.95.096.502 0 .894-.088 1.165-.264a.86.86 0 0 0 .415-.758.777.777 0 0 0-.215-.559c-.144-.151-.415-.287-.807-.415l-1.157-.36c-.583-.183-1.014-.454-1.277-.813a1.902 1.902 0 0 1-.4-1.158c0-.335.073-.63.216-.886.144-.255.335-.479.575-.654.24-.184.511-.32.83-.415a3.6 3.6 0 0 1 1.022-.144c.183 0 .367.008.559.032.183.024.359.056.527.096.16.04.311.08.455.127.144.048.256.096.336.144a.69.69 0 0 1 .24.2.432.432 0 0 1 .071.263v.375c0 .168-.064.256-.184.256a.83.83 0 0 1-.303-.096 3.652 3.652 0 0 0-1.532-.311c-.455 0-.815.071-1.062.223-.248.152-.375.383-.375.71 0 .224.08.416.24.567.16.152.454.304.87.44l1.133.358c.574.184.99.44 1.237.767.247.327.367.702.367 1.117 0 .343-.071.655-.208.926-.144.272-.335.511-.583.703-.247.2-.543.343-.886.447-.352.111-.727.167-1.142.167z"/><path fill="#FF9900" d="M21.214 16.836c-2.678 1.977-6.559 3.03-9.894 3.03-4.68 0-8.894-1.73-12.082-4.614-.25-.227-.026-.536.274-.36 3.442 2.001 7.698 3.211 12.1 3.211 2.967 0 6.229-.615 9.231-1.889.452-.191.832.3.371.622z"/><path fill="#FF9900" d="M22.276 15.62c-.342-.438-2.262-.207-3.123-.104-.262.032-.303-.197-.066-.36 1.53-1.076 4.04-.766 4.332-.405.293.368-.077 2.884-1.513 4.088-.22.184-.431.088-.332-.157.323-.806 1.044-2.623.702-3.062z"/></svg>