<svg xmlns="http://www.w3.org/2000/svg" viewBox="0 0 100 100"><g clip-path="url(#a)"><path d="M0 0H100V100H0V0Z" fill="#FF6600"/><path d="M36 72.2222V27.7778H51.2381C57.5873 27.7778 62.6667 32.8571 62.6667 39.2063V41.746C62.6667 44.6667 61.5873 47.3968 59.7461 49.3651C62.2858 51.4603 63.9366 54.6349 63.9366 58.254V60.7936C63.9366 67.1428 58.8572 72.2222 52.508 72.2222H36Z" fill="white" fill-opacity="0"/><rect x="10" y="10" width="80" height="80" rx="16" fill="white" fill-opacity="0.15"/><rect x="15" y="15" width="70" height="15" rx="4" fill="white" fill-opacity="0.3"/><circle cx="22" cy="22.5" r="3" fill="white" fill-opacity="0.6"/><circle cx="31" cy="22.5" r="3" fill="white" fill-opacity="0.6"/><circle cx="40" cy="22.5" r="3" fill="white" fill-opacity="0.6"/><rect x="15" y="35" width="70" height="50" rx="4" fill="white" fill-opacity="0.15"/></g></svg>