<svg xmlns="http://www.w3.org/2000/svg" viewBox="0 0 24 24"><path fill="#F38020" d="M16.51 15.858l.612-2.006c.078-.256.09-.481.033-.676-.056-.195-.183-.35-.38-.466a2.04 2.04 0 0 0-.36-.155 1.74 1.74 0 0 0-.44-.066H8.335c-.08 0-.128-.04-.145-.082a.163.163 0 0 1 .015-.16l.417-.705a.48.48 0 0 1 .172-.172.428.428 0 0 1 .233-.066h8.152c1.378 0 2.55-.928 2.79-2.262.032-.186.052-.374.058-.563A4.744 4.744 0 0 0 15.55 4.25a4.726 4.726 0 0 0-3.124.196A6.478 6.478 0 0 0 6.378 0C2.855 0 0 2.855 0 6.378c0 .518.062 1.022.18 1.504A4.103 4.103 0 0 0 4.101 15.858h12.41z"/><path fill="#FAAE40" d="M18.738 8.086a.109.109 0 0 0-.093-.05.116.116 0 0 0-.098.05l-.57.96a.48.48 0 0 0-.07.246l-.007.102c0 .063.01.127.03.192.03.094.056.166.076.216.028.064.042.134.042.21l-.003.08c-.013.136-.028.27-.045.406l-.612 2.007a.316.316 0 0 0-.013.117c-.001.045.016.084.05.117a.162.162 0 0 0 .12.049h3.22a.48.48 0 0 1 .234.066.48.48 0 0 1 .172.172l.416.706c.041.072.041.135-.001.19-.042.054-.098.081-.168.081h-4.384a.487.487 0 0 0-.233.066.48.48 0 0 0-.172.172l-.417.706c-.041.072-.041.135.002.19.042.053.097.08.167.08H21.6a4.162 4.162 0 0 0 2.4-7.58 5.16 5.16 0 0 0-5.261-3.37z"/></svg>