<svg xmlns="http://www.w3.org/2000/svg" viewBox="0 0 24 24"><path fill="#2496ED" d="M21.805 10.077a4.6 4.6 0 0 0-2.181-.573c-.406 0-.787.062-1.14.18a4.16 4.16 0 0 0-1.573-2.14l-.313-.233-.26.286a4.77 4.77 0 0 0-.726 1.453 3.89 3.89 0 0 0-.173 1.74H2.3c-.26 0-.467.207-.467.467a8.33 8.33 0 0 0 .507 2.953 4.94 4.94 0 0 0 1.94 2.427c.947.587 2.487.92 4.233.92a12.9 12.9 0 0 0 2.34-.213 9.38 9.38 0 0 0 2.727-1.013 7.67 7.67 0 0 0 2.06-1.753c.893-1.073 1.427-2.287 1.82-3.38h.16a3.48 3.48 0 0 0 2.467-.94 2.56 2.56 0 0 0 .74-1.06l.1-.3zM4.94 9.53h1.93a.17.17 0 0 0 .167-.166V7.63a.17.17 0 0 0-.167-.167H4.94a.17.17 0 0 0-.167.167v1.733c0 .094.073.167.167.167zm2.813 0h1.933a.17.17 0 0 0 .167-.166V7.63a.17.17 0 0 0-.167-.167H7.753a.17.17 0 0 0-.166.167v1.733c0 .094.073.167.166.167zm2.84 0h1.933a.17.17 0 0 0 .167-.166V7.63a.17.17 0 0 0-.167-.167h-1.933a.17.17 0 0 0-.167.167v1.733c0 .094.074.167.167.167zm2.827 0h1.933a.17.17 0 0 0 .167-.166V7.63a.17.17 0 0 0-.167-.167h-1.933a.17.17 0 0 0-.167.167v1.733c0 .094.073.167.167.167zm-5.667-2.72h1.933a.17.17 0 0 0 .167-.167V4.91a.17.17 0 0 0-.167-.167H7.753a.17.17 0 0 0-.166.167v1.733c0 .093.073.167.166.167zm2.84 0h1.933a.17.17 0 0 0 .167-.167V4.91a.17.17 0 0 0-.167-.167h-1.933a.17.17 0 0 0-.167.167v1.733c0 .093.074.167.167.167zm2.827 0h1.933a.17.17 0 0 0 .167-.167V4.91a.17.17 0 0 0-.167-.167h-1.933a.17.17 0 0 0-.167.167v1.733c0 .093.073.167.167.167zm0-2.72h1.933a.17.17 0 0 0 .167-.166V2.19a.17.17 0 0 0-.167-.167h-1.933a.17.17 0 0 0-.167.167v1.733c0 .094.073.167.167.167z"/></svg>