<svg xmlns="http://www.w3.org/2000/svg" viewBox="0 0 24 24"><path fill="#4169E1" d="M17.128 0a10.134 10.134 0 0 0-2.755.403l-.063.02A10.922 10.922 0 0 0 12.6.258C11.422.238 10.418.524 9.586 1 8.71.69 7.282.5 5.893.637c-2.144.213-3.9 1.214-4.752 2.866C-.18 6.398-.552 11.897.957 16.36c.538 1.592 1.29 2.79 2.208 3.466.532.39 1.12.588 1.728.588.46 0 .937-.12 1.399-.364.49 1.255 1.384 2.116 2.382 2.418.387.117.816.186 1.293.186l.073-.001c.94-.02 1.87-.36 2.632-1.004a3.767 3.767 0 0 0 1.358.207c.09 0 .178-.003.266-.008.893-.054 1.703-.454 2.236-1.092a3.456 3.456 0 0 0 1.18.187 3.027 3.027 0 0 0 .742-.09c1.484-.384 2.647-1.9 3.383-3.794.777-2 1.046-3.523.816-5.544-.126-1.106-.534-2.118-1.135-2.943.056-.378.087-.77.087-1.17C21.627 3.594 19.627 0 17.128 0"/></svg>